# xmcd
#
# Track frame offsets:
#	150
#	16175
#	29475
#	44885
#	59960
#	77594
#	87393
#	97577
#	114481
#	132758
#	148354
#	164193
#	177176
#	196081
#	213053
#	228365
#
# Disc length: 3260 seconds
#
# Revision: 1
# Processed by: cddbd v1.5.1PL0 Copyright (c) Steve Scherf et al.
# Submitted via: audiograbber 1.82.02
#
DISCID=df0cba10
DTITLE=Billy Ebsworth - Rollin With The Flow
DYEAR=1900
DGENRE=Country
TTITLE0=Without You
TTITLE1=Rollin With The Flow
TTITLE2=Brown Eyed Girl
TTITLE3=Witchita Linesman
TTITLE4=Blue Bayou
TTITLE5=Don't Be Cruel
TTITLE6=Tequila
TTITLE7=Stuck In The Middle
TTITLE8=If You Leave Me Know
TTITLE9=Imagine
TTITLE10=The Gambler
TTITLE11=Sorrow
TTITLE12=Let's Dance
TTITLE13=Unchained Melody
TTITLE14=Old Time Roc And Roll
TTITLE15=Wind Beneath My Wings
EXTD=
EXTT0=
EXTT1=
EXTT2=
EXTT3=
EXTT4=
EXTT5=
EXTT6=
EXTT7=
EXTT8=
EXTT9=
EXTT10=
EXTT11=
EXTT12=
EXTT13=
EXTT14=
EXTT15=
PLAYORDER=
